<svg class="diagram-root" style="background: rgb(245, 246, 246); --darkreader-inline-bgcolor: #151819; --darkreader-inline-bgimage: none;" xmlns="http://www.w3.org/2000/svg" xmlns:xlink="http://www.w3.org/1999/xlink" data-darkreader-inline-bgcolor="" data-darkreader-inline-bgimage=""><style>.diagram-root { font-family: "Helvetica Neue", sans-serif; font-size: 12px; } .t { overflow: visible; } .t-bg { y: 40; fill: #fff;   } .th { fill: #005aa0;   } .tht { fill: #fff; font-size: 14px;  } .tf { fill: #323c46; overflow: visible; } .tf.pk { fill: #005aa0; font-weight: bold; } .tf.fk { font-weight: bold; } .ty { fill: #adb1b5; font-weight: normal; text-anchor: end; } .r { fill: transparent; stroke: #c3c3c3; stroke-width: 1; } .l { stroke: 1; } .i { fill: #c2c7ce; stroke: #c2c7ce; } .i.ix { fill: #afb3b6; stroke: #000; } .fa { fill: transparent; overflow: visible; } .fa .bg.hover { fill: #f7f7f7; } .c { cy: 12; r: 4; stroke: #d2d2dc; fill: #d2d2dc; } .hr { fill: transparent; stroke: #323c46; stroke-opacity: 0.035; stroke-width: 13; } .dc { stroke: #fa5a3c; fill: #fa5a3c; } .x { stroke: white; stroke-width: 1; } .hl .th { fill: #1b9bff; } .hl .tht {  } .fhl .bg { fill: #e7f4ff; } .fhls .bg {  } .r.hl { stroke: #1b9bff; } .dim { opacity: 0.25; }</style><g class="drawing-wrapper" transform="translate(2, 18) scale(1,1)"><g class="rs"><path d="M 354.84 137 m -1, 0 a 1,1 0 1,0 2,0 a 1,1 0 1,0 -2,0 M 354.84 137 m -0.5, 0 a 0.5,0.5 0 1,0 1,0 a 0.5,0.5 0 1,0 -1,0  M354.84 137 L354.84 137 366.84 137 M 354.84 143 m -1, 0 a 1,1 0 1,0 2,0 a 1,1 0 1,0 -2,0 M 354.84 143 m -0.5, 0 a 0.5,0.5 0 1,0 1,0 a 0.5,0.5 0 1,0 -1,0  M354.84 143 L354.84 143 361.84 137 354.84 131 M 354.84 131 m -1, 0 a 1,1 0 1,0 2,0 a 1,1 0 1,0 -2,0 M 354.84 131 m -0.5, 0 a 0.5,0.5 0 1,0 1,0 a 0.5,0.5 0 1,0 -1,0  M366.84 137 C 416.84 137, 520.952 87, 193.32 87 M 181.32 87 m -1, 0 a 1,1 0 1,0 2,0 a 1,1 0 1,0 -2,0 M 181.32 87 m -0.5, 0 a 0.5,0.5 0 1,0 1,0 a 0.5,0.5 0 1,0 -1,0  M181.32 87 L181.32 87 193.32 87 M187.32 93 L187.32 93 187.32 81" id="h3845400953" class="r"></path><path d="M 380 112 m -1, 0 a 1,1 0 1,0 2,0 a 1,1 0 1,0 -2,0 M 380 112 m -0.5, 0 a 0.5,0.5 0 1,0 1,0 a 0.5,0.5 0 1,0 -1,0  M380 112 L380 112 368 112 M 380 118 m -1, 0 a 1,1 0 1,0 2,0 a 1,1 0 1,0 -2,0 M 380 118 m -0.5, 0 a 0.5,0.5 0 1,0 1,0 a 0.5,0.5 0 1,0 -1,0  M380 118 L380 118 373 112 380 106 M 380 106 m -1, 0 a 1,1 0 1,0 2,0 a 1,1 0 1,0 -2,0 M 380 106 m -0.5, 0 a 0.5,0.5 0 1,0 1,0 a 0.5,0.5 0 1,0 -1,0  M368 112 C 38 112, 143 87, 193 87 M 205 87 m -1, 0 a 1,1 0 1,0 2,0 a 1,1 0 1,0 -2,0 M 205 87 m -0.5, 0 a 0.5,0.5 0 1,0 1,0 a 0.5,0.5 0 1,0 -1,0  M205 87 L205 87 193 87 M199 93 L199 93 199 81" id="h1349042760" class="r"></path><path d="M 594.6 446 m -1, 0 a 1,1 0 1,0 2,0 a 1,1 0 1,0 -2,0 M 594.6 446 m -0.5, 0 a 0.5,0.5 0 1,0 1,0 a 0.5,0.5 0 1,0 -1,0  M594.6 446 L594.6 446 606.6 446 M 594.6 452 m -1, 0 a 1,1 0 1,0 2,0 a 1,1 0 1,0 -2,0 M 594.6 452 m -0.5, 0 a 0.5,0.5 0 1,0 1,0 a 0.5,0.5 0 1,0 -1,0  M594.6 452 L594.6 452 601.6 446 594.6 440 M 594.6 440 m -1, 0 a 1,1 0 1,0 2,0 a 1,1 0 1,0 -2,0 M 594.6 440 m -0.5, 0 a 0.5,0.5 0 1,0 1,0 a 0.5,0.5 0 1,0 -1,0  M606.6 446 C 656.6 446, 695.456 87, 541.84 87 M 529.84 87 m -1, 0 a 1,1 0 1,0 2,0 a 1,1 0 1,0 -2,0 M 529.84 87 m -0.5, 0 a 0.5,0.5 0 1,0 1,0 a 0.5,0.5 0 1,0 -1,0  M529.84 87 L529.84 87 541.84 87 M535.84 93 L535.84 93 535.84 81" id="h1937632762" class="r"></path></g><g class="hrs"></g><g class="ts"><svg width="151.32" height="200" x="30" y="30" id="h2948373614" class="t"><rect height="40" width="151.32" class="th"></rect><text x="13" y="25" class="tht">users</text><rect height="160" width="151.32" class="t-bg" y="40"></rect><text x="13" y="61" class="tf pk">id<tspan x="138.32" class="ty">int</tspan></text><path d="M7,14A2,2 0 0,1 5,12A2,2 0 0,1 7,10A2,2 0 0,1 9,12A2,2 0 0,1 7,14M12.65,10C11.83,7.67 9.61,6 7, 6A6, 6 0 0, 0 1, 12A6, 6 0 0, 0 7, 18C9.61, 18 11.83, 16.33 12.65, 14H17V18H21V14H23V10H12.65Z" class="i pk" transform="translate(105.84000045776367, 48) scale(0.65)"></path><text x="13" y="86" class="tf">name<tspan x="138.32" class="ty">char(50)</tspan></text><path d="M814.545 581.818v-23.273H535.273v-93.09h-46.546v93.09H209.455v139.637H256V605.09h232.727v93.09h46.546v-93.09H768v93.09h46.545V581.819zM674.91 465.455H349.091V139.636h325.818v325.819zM325.82 884.364H139.635V698.182h186.182v186.182z m279.272 0H418.909V698.182h186.182v186.182z m279.273 0H698.182V698.182h186.182v186.182zM395.636 418.909h232.728V186.182H395.636v232.727zM186.182 837.82h93.09v-93.092h-93.09v93.091z m279.273 0h93.09v-93.092h-93.09v93.091z m279.272 0h93.091v-93.092h-93.09v93.091z" class="i ix" transform="translate(78.91999847412109, 75) scale(0.014)"></path><text x="13" y="111" class="tf">email<tspan x="138.32" class="ty">char(50)</tspan></text><text x="13" y="136" class="tf">password<tspan x="138.32" class="ty">char(100)</tspan></text><text x="13" y="161" class="tf">phone<tspan x="138.32" class="ty">int?</tspan></text><text x="13" y="186" class="tf">createdAt<tspan x="138.32" class="ty">timestamp</tspan></text></svg><svg width="149.84" height="150" x="205" y="30" id="h2065871839" class="t"><rect height="40" width="149.84" class="th"></rect><text x="13" y="25" class="tht">persona</text><rect height="110" width="149.84" class="t-bg" y="40"></rect><text x="13" y="61" class="tf pk">id<tspan x="136.84" class="ty">int</tspan></text><path d="M7,14A2,2 0 0,1 5,12A2,2 0 0,1 7,10A2,2 0 0,1 9,12A2,2 0 0,1 7,14M12.65,10C11.83,7.67 9.61,6 7, 6A6, 6 0 0, 0 1, 12A6, 6 0 0, 0 7, 18C9.61, 18 11.83, 16.33 12.65, 14H17V18H21V14H23V10H12.65Z" class="i pk" transform="translate(104.36000045776368, 48) scale(0.65)"></path><text x="13" y="86" class="tf">name<tspan x="136.84" class="ty">char(50)</tspan></text><text x="13" y="111" class="tf pk">useriD<tspan x="136.84" class="ty">int</tspan></text><path d="M7,14A2,2 0 0,1 5,12A2,2 0 0,1 7,10A2,2 0 0,1 9,12A2,2 0 0,1 7,14M12.65,10C11.83,7.67 9.61,6 7, 6A6, 6 0 0, 0 1, 12A6, 6 0 0, 0 7, 18C9.61, 18 11.83, 16.33 12.65, 14H17V18H21V14H23V10H12.65Z" class="i pk" transform="translate(104.36000045776368, 98) scale(0.65)"></path><text x="13" y="136" class="tf">createdat<tspan x="136.84" class="ty">timestamp</tspan></text></svg><svg width="149.84" height="125" x="380" y="30" id="h1915905707" class="t"><rect height="40" width="149.84" class="th"></rect><text x="13" y="25" class="tht">chat</text><rect height="85" width="149.84" class="t-bg" y="40"></rect><text x="13" y="61" class="tf pk">id<tspan x="136.84" class="ty">int</tspan></text><path d="M7,14A2,2 0 0,1 5,12A2,2 0 0,1 7,10A2,2 0 0,1 9,12A2,2 0 0,1 7,14M12.65,10C11.83,7.67 9.61,6 7, 6A6, 6 0 0, 0 1, 12A6, 6 0 0, 0 7, 18C9.61, 18 11.83, 16.33 12.65, 14H17V18H21V14H23V10H12.65Z" class="i pk" transform="translate(104.36000045776368, 48) scale(0.65)"></path><text x="13" y="86" class="tf pk">personaid<tspan x="136.84" class="ty">int</tspan></text><path d="M7,14A2,2 0 0,1 5,12A2,2 0 0,1 7,10A2,2 0 0,1 9,12A2,2 0 0,1 7,14M12.65,10C11.83,7.67 9.61,6 7, 6A6, 6 0 0, 0 1, 12A6, 6 0 0, 0 7, 18C9.61, 18 11.83, 16.33 12.65, 14H17V18H21V14H23V10H12.65Z" class="i pk" transform="translate(104.36000045776368, 73) scale(0.65)"></path><text x="13" y="111" class="tf">createdat<tspan x="136.84" class="ty">timestamp</tspan></text></svg><svg width="144.6" height="150" x="450" y="364" id="h1499153326" class="t"><rect height="40" width="144.6" class="th"></rect><text x="13" y="25" class="tht">msg</text><rect height="110" width="144.6" class="t-bg" y="40"></rect><text x="13" y="61" class="tf pk">id<tspan x="131.6" class="ty">int</tspan></text><path d="M7,14A2,2 0 0,1 5,12A2,2 0 0,1 7,10A2,2 0 0,1 9,12A2,2 0 0,1 7,14M12.65,10C11.83,7.67 9.61,6 7, 6A6, 6 0 0, 0 1, 12A6, 6 0 0, 0 7, 18C9.61, 18 11.83, 16.33 12.65, 14H17V18H21V14H23V10H12.65Z" class="i pk" transform="translate(99.12000045776367, 48) scale(0.65)"></path><text x="13" y="86" class="tf pk">chatid<tspan x="131.6" class="ty">int</tspan></text><path d="M7,14A2,2 0 0,1 5,12A2,2 0 0,1 7,10A2,2 0 0,1 9,12A2,2 0 0,1 7,14M12.65,10C11.83,7.67 9.61,6 7, 6A6, 6 0 0, 0 1, 12A6, 6 0 0, 0 7, 18C9.61, 18 11.83, 16.33 12.65, 14H17V18H21V14H23V10H12.65Z" class="i pk" transform="translate(99.12000045776367, 73) scale(0.65)"></path><text x="13" y="111" class="tf">message<tspan x="131.6" class="ty">char(100)</tspan></text><text x="13" y="136" class="tf">date<tspan x="131.6" class="ty">timestamp</tspan></text></svg></g></g><text class="qdbd-link" x="10" y="20">www.quickdatabasediagrams.com</text></svg>